<svg xmlns="http://www.w3.org/2000/svg" version="1.1" xmlns:xlink="http://www.w3.org/1999/xlink" xmlns:svgjs="http://svgjs.dev/svgjs" width="2500" height="2000" preserveAspectRatio="none" viewBox="0 0 2500 2000"><g mask="url(&quot;#SvgjsMask1458&quot;)" fill="none"><path d="M1816.0553909776197 1635.1902559662485L2150.9458357884987 1750.5022835414927 1931.367418552864 1300.2998111553698z" fill="rgba(28, 83, 142, 0.4)" class="triangle-float3"></path><path d="M1919.80699730703 406.6755761423615L2178.8530752477586 173.42943990503605 1686.5608610697047 147.62949820163306z" fill="rgba(28, 83, 142, 0.4)" class="triangle-float2"></path><path d="M980.4724826297347 477.070377920468L911.4596076876581 152.39032852630316 586.7795582934932 221.4032034683798 655.7924332355699 546.0832528625446z" fill="rgba(28, 83, 142, 0.4)" class="triangle-float2"></path><path d="M550.1638696646734 1517.0203276757363L899.4143496568248 1761.5681464896002 1143.9621684706885 1412.3176664974487 794.7116884785372 1167.7698476835849z" fill="rgba(28, 83, 142, 0.4)" class="triangle-float2"></path><path d="M2276.3022563971863 1494.562972355211L2676.84503274954 1409.42497701199 2591.707037406319 1008.8822006596359 2191.164261053965 1094.0201960028571z" fill="rgba(28, 83, 142, 0.4)" class="triangle-float3"></path><path d="M875.918,2277.716C1018.922,2284.223,1154.259,2214.533,1232.266,2094.502C1318.309,1962.106,1363.752,1789.347,1280.503,1655.177C1200.165,1525.698,1027.827,1508.234,875.918,1520.185C746.971,1530.329,631.487,1598.301,568.368,1711.2C506.781,1821.359,511.421,1953.526,571.635,2064.442C634.973,2181.112,743.301,2271.682,875.918,2277.716" fill="rgba(28, 83, 142, 0.4)" class="triangle-float1"></path></g><defs><mask id="SvgjsMask1458"><rect width="2500" height="2000" fill="#ffffff"></rect></mask><style>
                @keyframes float1 {
                    0%{transform: translate(0, 0)}
                    50%{transform: translate(-10px, 0)}
                    100%{transform: translate(0, 0)}
                }

                .triangle-float1 {
                    animation: float1 5s infinite;
                }

                @keyframes float2 {
                    0%{transform: translate(0, 0)}
                    50%{transform: translate(-5px, -5px)}
                    100%{transform: translate(0, 0)}
                }

                .triangle-float2 {
                    animation: float2 4s infinite;
                }

                @keyframes float3 {
                    0%{transform: translate(0, 0)}
                    50%{transform: translate(0, -10px)}
                    100%{transform: translate(0, 0)}
                }

                .triangle-float3 {
                    animation: float3 6s infinite;
                }
            </style></defs></svg>