<svg xmlns="http://www.w3.org/2000/svg" version="1.1" xmlns:xlink="http://www.w3.org/1999/xlink" xmlns:svgjs="http://svgjs.dev/svgjs" width="2000" height="1500" preserveAspectRatio="none" viewBox="0 0 2000 1500"><g mask="url(&quot;#SvgjsMask1480&quot;)" fill="none"><path d="M376.6195956109857 592.0095137098797L686.7062078399166 466.72639008901484 251.33647199012086 281.9229014809488z" fill="rgba(28, 83, 142, 0.4)" class="triangle-float2"></path><path d="M639.8129021889065 1439.4125027360678L829.4959126459091 1050.504697713749 440.5881076235903 860.8216872567463 250.9050971665876 1249.7294922790652z" fill="rgba(28, 83, 142, 0.4)" class="triangle-float2"></path><path d="M92.683,363.472C146.045,365.841,196.508,332.113,219.158,283.738C239.262,240.802,214.225,195.287,190.705,154.124C166.91,112.48,140.645,62.73,92.683,62.391C44.42,62.05,14.293,109.795,-7.771,152.72C-27.509,191.12,-34.308,234.335,-15.731,273.31C5.945,318.785,42.356,361.238,92.683,363.472" fill="rgba(28, 83, 142, 0.4)" class="triangle-float2"></path><path d="M1184.3892699765352 688.2434870444026L1061.5367068626786 1065.122294080059 1401.6833928061853 999.0044761141897z" fill="rgba(28, 83, 142, 0.4)" class="triangle-float1"></path><path d="M1047.883,624.827C1142.416,627.71,1233.934,586.2,1284.617,506.35C1339.161,420.416,1356.967,308.7,1303.514,222.083C1252.057,138.7,1145.86,121.722,1047.883,122.739C952.194,123.732,849.032,144.367,801.283,227.297C753.604,310.106,784.535,411.434,834.906,492.634C882.114,568.736,958.37,622.097,1047.883,624.827" fill="rgba(28, 83, 142, 0.4)" class="triangle-float2"></path><path d="M1743.77,1392.083C1794.866,1391.926,1833.223,1352.439,1860.229,1309.063C1889.388,1262.229,1917.264,1205.362,1889.817,1157.505C1862.292,1109.511,1799.092,1105.224,1743.77,1106C1690.263,1106.751,1631.416,1115.168,1604.651,1161.506C1577.88,1207.854,1598.411,1263.956,1626.062,1309.785C1652.57,1353.72,1692.458,1392.241,1743.77,1392.083" fill="rgba(28, 83, 142, 0.4)" class="triangle-float3"></path></g><defs><mask id="SvgjsMask1480"><rect width="2000" height="1500" fill="#ffffff"></rect></mask><style>
                @keyframes float1 {
                    0%{transform: translate(0, 0)}
                    50%{transform: translate(-10px, 0)}
                    100%{transform: translate(0, 0)}
                }

                .triangle-float1 {
                    animation: float1 5s infinite;
                }

                @keyframes float2 {
                    0%{transform: translate(0, 0)}
                    50%{transform: translate(-5px, -5px)}
                    100%{transform: translate(0, 0)}
                }

                .triangle-float2 {
                    animation: float2 4s infinite;
                }

                @keyframes float3 {
                    0%{transform: translate(0, 0)}
                    50%{transform: translate(0, -10px)}
                    100%{transform: translate(0, 0)}
                }

                .triangle-float3 {
                    animation: float3 6s infinite;
                }
            </style></defs></svg>