<svg xmlns="http://www.w3.org/2000/svg" version="1.1" xmlns:xlink="http://www.w3.org/1999/xlink" xmlns:svgjs="http://svgjs.dev/svgjs" width="2500" height="1500" preserveAspectRatio="none" viewBox="0 0 2500 1500"><g mask="url(&quot;#SvgjsMask1039&quot;)" fill="none"><path d="M1804 1005L1181 1628" stroke-width="10" stroke="url(&quot;#SvgjsLinearGradient1040&quot;)" stroke-linecap="round" class="BottomLeft"></path><path d="M961 919L549 1331" stroke-width="10" stroke="url(&quot;#SvgjsLinearGradient1041&quot;)" stroke-linecap="round" class="TopRight"></path><path d="M546 1421L1399 568" stroke-width="10" stroke="url(&quot;#SvgjsLinearGradient1040&quot;)" stroke-linecap="round" class="BottomLeft"></path><path d="M2470 1322L1363 2429" stroke-width="6" stroke="url(&quot;#SvgjsLinearGradient1041&quot;)" stroke-linecap="round" class="TopRight"></path><path d="M1869 1013L1212 1670" stroke-width="6" stroke="url(&quot;#SvgjsLinearGradient1041&quot;)" stroke-linecap="round" class="TopRight"></path><path d="M2030 933L963 2000" stroke-width="6" stroke="url(&quot;#SvgjsLinearGradient1041&quot;)" stroke-linecap="round" class="TopRight"></path><path d="M453 911L-43 1407" stroke-width="8" stroke="url(&quot;#SvgjsLinearGradient1041&quot;)" stroke-linecap="round" class="TopRight"></path><path d="M2464 1435L2996 903" stroke-width="6" stroke="url(&quot;#SvgjsLinearGradient1040&quot;)" stroke-linecap="round" class="BottomLeft"></path><path d="M2375 290L3450 -785" stroke-width="8" stroke="url(&quot;#SvgjsLinearGradient1041&quot;)" stroke-linecap="round" class="TopRight"></path><path d="M1417 428L2541 -696" stroke-width="8" stroke="url(&quot;#SvgjsLinearGradient1041&quot;)" stroke-linecap="round" class="TopRight"></path><path d="M1598 760L509 1849" stroke-width="10" stroke="url(&quot;#SvgjsLinearGradient1040&quot;)" stroke-linecap="round" class="BottomLeft"></path><path d="M1066 265L1504 -173" stroke-width="10" stroke="url(&quot;#SvgjsLinearGradient1040&quot;)" stroke-linecap="round" class="BottomLeft"></path><path d="M346 773L1127 -8" stroke-width="6" stroke="url(&quot;#SvgjsLinearGradient1041&quot;)" stroke-linecap="round" class="TopRight"></path><path d="M707 851L155 1403" stroke-width="8" stroke="url(&quot;#SvgjsLinearGradient1040&quot;)" stroke-linecap="round" class="BottomLeft"></path><path d="M2003 103L2424 -318" stroke-width="6" stroke="url(&quot;#SvgjsLinearGradient1040&quot;)" stroke-linecap="round" class="BottomLeft"></path><path d="M2409 1482L3365 526" stroke-width="6" stroke="url(&quot;#SvgjsLinearGradient1041&quot;)" stroke-linecap="round" class="TopRight"></path><path d="M1922 1129L1493 1558" stroke-width="8" stroke="url(&quot;#SvgjsLinearGradient1040&quot;)" stroke-linecap="round" class="BottomLeft"></path><path d="M1549 793L2034 308" stroke-width="6" stroke="url(&quot;#SvgjsLinearGradient1041&quot;)" stroke-linecap="round" class="TopRight"></path><path d="M1200 749L2267 -318" stroke-width="8" stroke="url(&quot;#SvgjsLinearGradient1040&quot;)" stroke-linecap="round" class="BottomLeft"></path><path d="M528 701L-357 1586" stroke-width="10" stroke="url(&quot;#SvgjsLinearGradient1040&quot;)" stroke-linecap="round" class="BottomLeft"></path><path d="M857 918L-16 1791" stroke-width="10" stroke="url(&quot;#SvgjsLinearGradient1041&quot;)" stroke-linecap="round" class="TopRight"></path><path d="M50 1142L546 646" stroke-width="6" stroke="url(&quot;#SvgjsLinearGradient1041&quot;)" stroke-linecap="round" class="TopRight"></path><path d="M2245 1124L3118 251" stroke-width="10" stroke="url(&quot;#SvgjsLinearGradient1041&quot;)" stroke-linecap="round" class="TopRight"></path><path d="M1765 1177L675 2267" stroke-width="10" stroke="url(&quot;#SvgjsLinearGradient1041&quot;)" stroke-linecap="round" class="TopRight"></path><path d="M2008 1097L1301 1804" stroke-width="10" stroke="url(&quot;#SvgjsLinearGradient1040&quot;)" stroke-linecap="round" class="BottomLeft"></path><path d="M1517 1310L929 1898" stroke-width="8" stroke="url(&quot;#SvgjsLinearGradient1040&quot;)" stroke-linecap="round" class="BottomLeft"></path><path d="M1057 833L1717 173" stroke-width="8" stroke="url(&quot;#SvgjsLinearGradient1040&quot;)" stroke-linecap="round" class="BottomLeft"></path><path d="M322 1093L-349 1764" stroke-width="8" stroke="url(&quot;#SvgjsLinearGradient1041&quot;)" stroke-linecap="round" class="TopRight"></path><path d="M2492 451L3490 -547" stroke-width="8" stroke="url(&quot;#SvgjsLinearGradient1040&quot;)" stroke-linecap="round" class="BottomLeft"></path><path d="M412 1355L1126 641" stroke-width="8" stroke="url(&quot;#SvgjsLinearGradient1041&quot;)" stroke-linecap="round" class="TopRight"></path><path d="M1454 1095L671 1878" stroke-width="10" stroke="url(&quot;#SvgjsLinearGradient1040&quot;)" stroke-linecap="round" class="BottomLeft"></path><path d="M1943 790L894 1839" stroke-width="8" stroke="url(&quot;#SvgjsLinearGradient1041&quot;)" stroke-linecap="round" class="TopRight"></path><path d="M310 636L1312 -366" stroke-width="10" stroke="url(&quot;#SvgjsLinearGradient1041&quot;)" stroke-linecap="round" class="TopRight"></path><path d="M1166 1357L409 2114" stroke-width="10" stroke="url(&quot;#SvgjsLinearGradient1041&quot;)" stroke-linecap="round" class="TopRight"></path><path d="M1940 1080L1112 1908" stroke-width="10" stroke="url(&quot;#SvgjsLinearGradient1040&quot;)" stroke-linecap="round" class="BottomLeft"></path><path d="M2385 444L3371 -542" stroke-width="10" stroke="url(&quot;#SvgjsLinearGradient1040&quot;)" stroke-linecap="round" class="BottomLeft"></path><path d="M1165 38L445 758" stroke-width="6" stroke="url(&quot;#SvgjsLinearGradient1041&quot;)" stroke-linecap="round" class="TopRight"></path><path d="M1103 974L14 2063" stroke-width="8" stroke="url(&quot;#SvgjsLinearGradient1040&quot;)" stroke-linecap="round" class="BottomLeft"></path><path d="M988 946L362 1572" stroke-width="10" stroke="url(&quot;#SvgjsLinearGradient1040&quot;)" stroke-linecap="round" class="BottomLeft"></path><path d="M2379 1473L1815 2037" stroke-width="6" stroke="url(&quot;#SvgjsLinearGradient1041&quot;)" stroke-linecap="round" class="TopRight"></path><path d="M1993 886L3013 -134" stroke-width="10" stroke="url(&quot;#SvgjsLinearGradient1040&quot;)" stroke-linecap="round" class="BottomLeft"></path><path d="M268 669L-818 1755" stroke-width="10" stroke="url(&quot;#SvgjsLinearGradient1041&quot;)" stroke-linecap="round" class="TopRight"></path><path d="M529 921L-1 1451" stroke-width="6" stroke="url(&quot;#SvgjsLinearGradient1040&quot;)" stroke-linecap="round" class="BottomLeft"></path><path d="M56 268L1074 -750" stroke-width="10" stroke="url(&quot;#SvgjsLinearGradient1040&quot;)" stroke-linecap="round" class="BottomLeft"></path><path d="M259 869L-302 1430" stroke-width="6" stroke="url(&quot;#SvgjsLinearGradient1041&quot;)" stroke-linecap="round" class="TopRight"></path><path d="M1016 942L76 1882" stroke-width="6" stroke="url(&quot;#SvgjsLinearGradient1041&quot;)" stroke-linecap="round" class="TopRight"></path><path d="M1771 29L2761 -961" stroke-width="6" stroke="url(&quot;#SvgjsLinearGradient1041&quot;)" stroke-linecap="round" class="TopRight"></path><path d="M988 353L111 1230" stroke-width="6" stroke="url(&quot;#SvgjsLinearGradient1040&quot;)" stroke-linecap="round" class="BottomLeft"></path><path d="M1329 661L2034 -44" stroke-width="10" stroke="url(&quot;#SvgjsLinearGradient1041&quot;)" stroke-linecap="round" class="TopRight"></path><path d="M2 526L1108 -580" stroke-width="8" stroke="url(&quot;#SvgjsLinearGradient1041&quot;)" stroke-linecap="round" class="TopRight"></path><path d="M261 581L1184 -342" stroke-width="6" stroke="url(&quot;#SvgjsLinearGradient1040&quot;)" stroke-linecap="round" class="BottomLeft"></path><path d="M523 581L-207 1311" stroke-width="10" stroke="url(&quot;#SvgjsLinearGradient1041&quot;)" stroke-linecap="round" class="TopRight"></path><path d="M521 1031L1379 173" stroke-width="6" stroke="url(&quot;#SvgjsLinearGradient1041&quot;)" stroke-linecap="round" class="TopRight"></path><path d="M816 535L-142 1493" stroke-width="8" stroke="url(&quot;#SvgjsLinearGradient1041&quot;)" stroke-linecap="round" class="TopRight"></path><path d="M2045 113L2565 -407" stroke-width="8" stroke="url(&quot;#SvgjsLinearGradient1041&quot;)" stroke-linecap="round" class="TopRight"></path><path d="M1222 1345L1951 616" stroke-width="6" stroke="url(&quot;#SvgjsLinearGradient1041&quot;)" stroke-linecap="round" class="TopRight"></path><path d="M1695 1451L1246 1900" stroke-width="6" stroke="url(&quot;#SvgjsLinearGradient1041&quot;)" stroke-linecap="round" class="TopRight"></path><path d="M597 744L1229 112" stroke-width="10" stroke="url(&quot;#SvgjsLinearGradient1041&quot;)" stroke-linecap="round" class="TopRight"></path><path d="M1740 343L2442 -359" stroke-width="8" stroke="url(&quot;#SvgjsLinearGradient1041&quot;)" stroke-linecap="round" class="TopRight"></path><path d="M1506 1053L2074 485" stroke-width="8" stroke="url(&quot;#SvgjsLinearGradient1041&quot;)" stroke-linecap="round" class="TopRight"></path><path d="M44 982L1162 -136" stroke-width="10" stroke="url(&quot;#SvgjsLinearGradient1041&quot;)" stroke-linecap="round" class="TopRight"></path><path d="M1429 456L579 1306" stroke-width="8" stroke="url(&quot;#SvgjsLinearGradient1041&quot;)" stroke-linecap="round" class="TopRight"></path><path d="M2200 217L3142 -725" stroke-width="10" stroke="url(&quot;#SvgjsLinearGradient1040&quot;)" stroke-linecap="round" class="BottomLeft"></path><path d="M732 730L1787 -325" stroke-width="10" stroke="url(&quot;#SvgjsLinearGradient1040&quot;)" stroke-linecap="round" class="BottomLeft"></path><path d="M289 475L1153 -389" stroke-width="8" stroke="url(&quot;#SvgjsLinearGradient1041&quot;)" stroke-linecap="round" class="TopRight"></path><path d="M1275 104L395 984" stroke-width="8" stroke="url(&quot;#SvgjsLinearGradient1041&quot;)" stroke-linecap="round" class="TopRight"></path><path d="M1912 944L2955 -99" stroke-width="6" stroke="url(&quot;#SvgjsLinearGradient1041&quot;)" stroke-linecap="round" class="TopRight"></path><path d="M611 387L-379 1377" stroke-width="10" stroke="url(&quot;#SvgjsLinearGradient1041&quot;)" stroke-linecap="round" class="TopRight"></path><path d="M79 1395L-933 2407" stroke-width="10" stroke="url(&quot;#SvgjsLinearGradient1041&quot;)" stroke-linecap="round" class="TopRight"></path><path d="M1298 96L2308 -914" stroke-width="8" stroke="url(&quot;#SvgjsLinearGradient1040&quot;)" stroke-linecap="round" class="BottomLeft"></path><path d="M1678 506L632 1552" stroke-width="6" stroke="url(&quot;#SvgjsLinearGradient1040&quot;)" stroke-linecap="round" class="BottomLeft"></path><path d="M75 479L1009 -455" stroke-width="10" stroke="url(&quot;#SvgjsLinearGradient1040&quot;)" stroke-linecap="round" class="BottomLeft"></path><path d="M629 1077L1296 410" stroke-width="6" stroke="url(&quot;#SvgjsLinearGradient1040&quot;)" stroke-linecap="round" class="BottomLeft"></path></g><defs><mask id="SvgjsMask1039"><rect width="2500" height="1500" fill="#ffffff"></rect></mask><linearGradient x1="100%" y1="0%" x2="0%" y2="100%" id="SvgjsLinearGradient1040"><stop stop-color="rgba(28, 142, 127, 0)" offset="0"></stop><stop stop-color="rgba(28, 142, 127, 1)" offset="1"></stop></linearGradient><linearGradient x1="0%" y1="100%" x2="100%" y2="0%" id="SvgjsLinearGradient1041"><stop stop-color="rgba(28, 142, 127, 0)" offset="0"></stop><stop stop-color="rgba(28, 142, 127, 1)" offset="1"></stop></linearGradient></defs></svg>