<svg xmlns="http://www.w3.org/2000/svg" version="1.1" xmlns:xlink="http://www.w3.org/1999/xlink" xmlns:svgjs="http://svgjs.dev/svgjs" width="1800" height="1500" preserveAspectRatio="none" viewBox="0 0 1800 1500"><g mask="url(&quot;#SvgjsMask1130&quot;)" fill="none"><path d="M1054 726L2142 -362" stroke-width="10" stroke="url(&quot;#SvgjsLinearGradient1131&quot;)" stroke-linecap="round" class="TopRight"></path><path d="M558 524L1086 -4" stroke-width="6" stroke="url(&quot;#SvgjsLinearGradient1131&quot;)" stroke-linecap="round" class="TopRight"></path><path d="M1502 1358L2006 854" stroke-width="10" stroke="url(&quot;#SvgjsLinearGradient1132&quot;)" stroke-linecap="round" class="BottomLeft"></path><path d="M326 1211L1439 98" stroke-width="6" stroke="url(&quot;#SvgjsLinearGradient1131&quot;)" stroke-linecap="round" class="TopRight"></path><path d="M882 1019L208 1693" stroke-width="10" stroke="url(&quot;#SvgjsLinearGradient1132&quot;)" stroke-linecap="round" class="BottomLeft"></path><path d="M694 1167L-234 2095" stroke-width="10" stroke="url(&quot;#SvgjsLinearGradient1132&quot;)" stroke-linecap="round" class="BottomLeft"></path><path d="M1510 1469L2558 421" stroke-width="10" stroke="url(&quot;#SvgjsLinearGradient1132&quot;)" stroke-linecap="round" class="BottomLeft"></path><path d="M1755 828L832 1751" stroke-width="8" stroke="url(&quot;#SvgjsLinearGradient1131&quot;)" stroke-linecap="round" class="TopRight"></path><path d="M1768 304L729 1343" stroke-width="10" stroke="url(&quot;#SvgjsLinearGradient1131&quot;)" stroke-linecap="round" class="TopRight"></path><path d="M330 214L-661 1205" stroke-width="8" stroke="url(&quot;#SvgjsLinearGradient1132&quot;)" stroke-linecap="round" class="BottomLeft"></path><path d="M88 504L806 -214" stroke-width="6" stroke="url(&quot;#SvgjsLinearGradient1131&quot;)" stroke-linecap="round" class="TopRight"></path><path d="M1463 167L685 945" stroke-width="8" stroke="url(&quot;#SvgjsLinearGradient1131&quot;)" stroke-linecap="round" class="TopRight"></path><path d="M424 425L-283 1132" stroke-width="6" stroke="url(&quot;#SvgjsLinearGradient1131&quot;)" stroke-linecap="round" class="TopRight"></path><path d="M1575 391L980 986" stroke-width="10" stroke="url(&quot;#SvgjsLinearGradient1132&quot;)" stroke-linecap="round" class="BottomLeft"></path><path d="M1523 125L417 1231" stroke-width="10" stroke="url(&quot;#SvgjsLinearGradient1131&quot;)" stroke-linecap="round" class="TopRight"></path><path d="M964 371L1940 -605" stroke-width="8" stroke="url(&quot;#SvgjsLinearGradient1131&quot;)" stroke-linecap="round" class="TopRight"></path><path d="M75 1353L-686 2114" stroke-width="8" stroke="url(&quot;#SvgjsLinearGradient1131&quot;)" stroke-linecap="round" class="TopRight"></path><path d="M318 7L961 -636" stroke-width="10" stroke="url(&quot;#SvgjsLinearGradient1131&quot;)" stroke-linecap="round" class="TopRight"></path><path d="M1083 1245L448 1880" stroke-width="10" stroke="url(&quot;#SvgjsLinearGradient1131&quot;)" stroke-linecap="round" class="TopRight"></path><path d="M372 84L-614 1070" stroke-width="8" stroke="url(&quot;#SvgjsLinearGradient1131&quot;)" stroke-linecap="round" class="TopRight"></path><path d="M1618 596L1020 1194" stroke-width="10" stroke="url(&quot;#SvgjsLinearGradient1131&quot;)" stroke-linecap="round" class="TopRight"></path><path d="M417 1049L-480 1946" stroke-width="6" stroke="url(&quot;#SvgjsLinearGradient1131&quot;)" stroke-linecap="round" class="TopRight"></path><path d="M1554 716L2271 -1" stroke-width="6" stroke="url(&quot;#SvgjsLinearGradient1131&quot;)" stroke-linecap="round" class="TopRight"></path><path d="M1216 1363L115 2464" stroke-width="10" stroke="url(&quot;#SvgjsLinearGradient1132&quot;)" stroke-linecap="round" class="BottomLeft"></path><path d="M1271 126L1778 -381" stroke-width="8" stroke="url(&quot;#SvgjsLinearGradient1131&quot;)" stroke-linecap="round" class="TopRight"></path><path d="M110 583L1166 -473" stroke-width="10" stroke="url(&quot;#SvgjsLinearGradient1131&quot;)" stroke-linecap="round" class="TopRight"></path><path d="M1731 1190L828 2093" stroke-width="6" stroke="url(&quot;#SvgjsLinearGradient1132&quot;)" stroke-linecap="round" class="BottomLeft"></path><path d="M1516 47L422 1141" stroke-width="10" stroke="url(&quot;#SvgjsLinearGradient1131&quot;)" stroke-linecap="round" class="TopRight"></path><path d="M942 1072L1618 396" stroke-width="6" stroke="url(&quot;#SvgjsLinearGradient1131&quot;)" stroke-linecap="round" class="TopRight"></path><path d="M597 1292L-306 2195" stroke-width="8" stroke="url(&quot;#SvgjsLinearGradient1132&quot;)" stroke-linecap="round" class="BottomLeft"></path><path d="M1774 1432L2842 364" stroke-width="10" stroke="url(&quot;#SvgjsLinearGradient1132&quot;)" stroke-linecap="round" class="BottomLeft"></path><path d="M48 268L1171 -855" stroke-width="6" stroke="url(&quot;#SvgjsLinearGradient1132&quot;)" stroke-linecap="round" class="BottomLeft"></path><path d="M1685 1334L1221 1798" stroke-width="6" stroke="url(&quot;#SvgjsLinearGradient1132&quot;)" stroke-linecap="round" class="BottomLeft"></path><path d="M1078 771L1937 -88" stroke-width="6" stroke="url(&quot;#SvgjsLinearGradient1131&quot;)" stroke-linecap="round" class="TopRight"></path><path d="M794 744L1195 343" stroke-width="6" stroke="url(&quot;#SvgjsLinearGradient1132&quot;)" stroke-linecap="round" class="BottomLeft"></path><path d="M523 307L1301 -471" stroke-width="8" stroke="url(&quot;#SvgjsLinearGradient1132&quot;)" stroke-linecap="round" class="BottomLeft"></path><path d="M540 262L2 800" stroke-width="10" stroke="url(&quot;#SvgjsLinearGradient1131&quot;)" stroke-linecap="round" class="TopRight"></path><path d="M869 1234L-97 2200" stroke-width="8" stroke="url(&quot;#SvgjsLinearGradient1132&quot;)" stroke-linecap="round" class="BottomLeft"></path><path d="M1405 581L334 1652" stroke-width="8" stroke="url(&quot;#SvgjsLinearGradient1131&quot;)" stroke-linecap="round" class="TopRight"></path><path d="M264 1369L-415 2048" stroke-width="6" stroke="url(&quot;#SvgjsLinearGradient1131&quot;)" stroke-linecap="round" class="TopRight"></path><path d="M1003 150L589 564" stroke-width="6" stroke="url(&quot;#SvgjsLinearGradient1131&quot;)" stroke-linecap="round" class="TopRight"></path><path d="M417 590L-241 1248" stroke-width="8" stroke="url(&quot;#SvgjsLinearGradient1131&quot;)" stroke-linecap="round" class="TopRight"></path><path d="M516 748L1187 77" stroke-width="10" stroke="url(&quot;#SvgjsLinearGradient1132&quot;)" stroke-linecap="round" class="BottomLeft"></path><path d="M349 373L-512 1234" stroke-width="8" stroke="url(&quot;#SvgjsLinearGradient1132&quot;)" stroke-linecap="round" class="BottomLeft"></path><path d="M227 583L1036 -226" stroke-width="10" stroke="url(&quot;#SvgjsLinearGradient1132&quot;)" stroke-linecap="round" class="BottomLeft"></path><path d="M1717 354L2794 -723" stroke-width="8" stroke="url(&quot;#SvgjsLinearGradient1132&quot;)" stroke-linecap="round" class="BottomLeft"></path><path d="M171 759L1263 -333" stroke-width="8" stroke="url(&quot;#SvgjsLinearGradient1132&quot;)" stroke-linecap="round" class="BottomLeft"></path><path d="M167 867L-537 1571" stroke-width="8" stroke="url(&quot;#SvgjsLinearGradient1131&quot;)" stroke-linecap="round" class="TopRight"></path><path d="M331 1202L949 584" stroke-width="8" stroke="url(&quot;#SvgjsLinearGradient1132&quot;)" stroke-linecap="round" class="BottomLeft"></path><path d="M939 414L1426 -73" stroke-width="10" stroke="url(&quot;#SvgjsLinearGradient1132&quot;)" stroke-linecap="round" class="BottomLeft"></path><path d="M1446 711L2055 102" stroke-width="10" stroke="url(&quot;#SvgjsLinearGradient1131&quot;)" stroke-linecap="round" class="TopRight"></path><path d="M930 327L-3 1260" stroke-width="8" stroke="url(&quot;#SvgjsLinearGradient1132&quot;)" stroke-linecap="round" class="BottomLeft"></path><path d="M1204 1388L261 2331" stroke-width="6" stroke="url(&quot;#SvgjsLinearGradient1132&quot;)" stroke-linecap="round" class="BottomLeft"></path><path d="M1315 998L846 1467" stroke-width="8" stroke="url(&quot;#SvgjsLinearGradient1131&quot;)" stroke-linecap="round" class="TopRight"></path><path d="M358 1004L778 584" stroke-width="8" stroke="url(&quot;#SvgjsLinearGradient1131&quot;)" stroke-linecap="round" class="TopRight"></path><path d="M138 297L911 -476" stroke-width="8" stroke="url(&quot;#SvgjsLinearGradient1132&quot;)" stroke-linecap="round" class="BottomLeft"></path><path d="M1613 942L946 1609" stroke-width="10" stroke="url(&quot;#SvgjsLinearGradient1132&quot;)" stroke-linecap="round" class="BottomLeft"></path><path d="M1002 1212L67 2147" stroke-width="6" stroke="url(&quot;#SvgjsLinearGradient1131&quot;)" stroke-linecap="round" class="TopRight"></path><path d="M1585 815L557 1843" stroke-width="10" stroke="url(&quot;#SvgjsLinearGradient1132&quot;)" stroke-linecap="round" class="BottomLeft"></path></g><defs><mask id="SvgjsMask1130"><rect width="1800" height="1500" fill="#ffffff"></rect></mask><linearGradient x1="0%" y1="100%" x2="100%" y2="0%" id="SvgjsLinearGradient1131"><stop stop-color="rgba(28, 142, 127, 0)" offset="0"></stop><stop stop-color="rgba(28, 142, 127, 1)" offset="1"></stop></linearGradient><linearGradient x1="100%" y1="0%" x2="0%" y2="100%" id="SvgjsLinearGradient1132"><stop stop-color="rgba(28, 142, 127, 0)" offset="0"></stop><stop stop-color="rgba(28, 142, 127, 1)" offset="1"></stop></linearGradient></defs></svg>